<svg width="614" height="212" viewBox="0 0 614 212" fill="none" xmlns="http://www.w3.org/2000/svg">
<rect width="614" height="212" fill="white"/>
<path d="M208.565 101.871H213.052L217.487 106.254V112.984H215.491" stroke="black"/>
<path d="M203.557 113.089H210.287" stroke="black"/>
<circle cx="212.948" cy="112.984" r="2.4218" stroke="black"/>
<path fill-rule="evenodd" clip-rule="evenodd" d="M201.052 114.906C202.114 114.906 202.974 114.046 202.974 112.984C202.974 111.923 202.114 111.062 201.052 111.062C199.991 111.062 199.13 111.923 199.13 112.984C199.13 114.046 199.991 114.906 201.052 114.906ZM201.052 115.906C202.666 115.906 203.974 114.598 203.974 112.984C203.974 111.371 202.666 110.062 201.052 110.062C199.439 110.062 198.13 111.371 198.13 112.984C198.13 114.598 199.439 115.906 201.052 115.906Z" fill="black"/>
<path d="M196.498 113.493L196.498 98.501L208.501 98.5235V112.984H203.452" stroke="black"/>
<path d="M196.2 112.984H198.704" stroke="black"/>
<path d="M455.756 50.3814C456.309 48.453 457.458 46.749 459.039 45.5139C460.62 44.2788 462.552 43.5758 464.557 43.5058C466.562 43.4358 468.537 44.0023 470.201 45.1241C471.864 46.246 473.129 47.8656 473.815 49.7508" stroke="#14142B" stroke-linejoin="round"/>
<path d="M473.641 56.6931C472.926 58.3868 471.736 59.8368 470.213 60.8673C468.691 61.8977 466.902 62.4643 465.064 62.4984C463.226 62.5324 461.418 62.0325 459.858 61.0592C458.299 60.0858 457.055 58.681 456.278 57.0149" stroke="#14142B" stroke-linejoin="round"/>
<path d="M460.601 56.0242L456.147 56.3157L454.493 60.5527" stroke="#14142B"/>
<path d="M469.075 50.3604L473.7 50.349L475.28 46.1376" stroke="#14142B"/>
<path d="M422.535 42.2217L434.284 53.9706L422.97 65.2843L411.221 53.5354L411.657 42.6569L422.535 42.2217Z" stroke="#14142B"/>
<circle cx="418.141" cy="48.5566" r="1" stroke="#14142B"/>
<path d="M26.4959 64.28L27.3117 47.7207H43.659L44.4747 64.28H26.4959Z" stroke="#14142B"/>
<path d="M31.1604 51.1491L31.1604 46.5514C31.1604 45.4044 31.6161 44.3043 32.4271 43.4933C33.2382 42.6822 34.3382 42.2266 35.4852 42.2266C36.6322 42.2266 37.7323 42.6822 38.5433 43.4933C39.3544 44.3043 39.8101 45.4044 39.8101 46.5514V51.1491" stroke="#14142B"/>
<path d="M37.2827 46L43.9998 53L37.2827 60" stroke="#14142B"/>
<line x1="43.6279" y1="53.1089" x2="25.8949" y2="53.1089" stroke="#14142B"/>
<path d="M78 44V62" stroke="black"/>
<path d="M69 53H87" stroke="black"/>
<path d="M123.283 46L130 53L123.283 60" stroke="#14142B"/>
<line x1="129.628" y1="53.1089" x2="111.895" y2="53.1089" stroke="#14142B"/>
<path d="M161.612 60L154.895 53L161.612 46" stroke="#14142B"/>
<line x1="155.267" y1="52.8911" x2="173" y2="52.8911" stroke="#14142B"/>
<path d="M197.772 44.7722C195.409 47.135 195.409 50.966 197.772 53.3289L206.937 62.4937L207 62.4307L207.063 62.4938L216.228 53.329C218.591 50.9661 218.591 47.1351 216.228 44.7722C213.865 42.4094 210.034 42.4094 207.671 44.7722L207.354 45.0898C207.158 45.285 206.842 45.285 206.647 45.0898L206.329 44.7722C203.966 42.4093 200.135 42.4093 197.772 44.7722Z" stroke="#14142B"/>
<path d="M249 61C253.971 61 258 56.9706 258 52C258 47.0294 253.971 43 249 43C244.029 43 240 47.0294 240 52C240 56.9706 244.029 61 249 61Z" stroke="#14142B"/>
<path d="M260 62.9999L256.782 59.7822" stroke="#14142B"/>
<path d="M281.307 53H296.982" stroke="#14142B"/>
<path d="M281.307 46H304.693" stroke="#14142B"/>
<path d="M281.307 60H304.693" stroke="#14142B"/>
<path d="M330 47L342.774 59.7742" stroke="#14142B" stroke-linejoin="round"/>
<path d="M330 59.7744L342.774 47.0002" stroke="#14142B" stroke-linejoin="round"/>
<path d="M30.6509 106.446L26.8406 113.541H42.9805L34.988 98.5469L31.7352 104.34" stroke="black"/>
<path d="M26.7787 101.955L44.8082 111" stroke="black"/>
<rect x="70.3863" y="99.4897" width="15" height="15" stroke="black"/>
<path fill-rule="evenodd" clip-rule="evenodd" d="M86.3549 111.397L68.2476 102.38L68.6933 101.485L86.8006 110.501L86.3549 111.397Z" fill="black"/>
<path fill-rule="evenodd" clip-rule="evenodd" d="M80.845 109.751C80.1197 110.49 79.1095 110.948 77.9922 110.948C75.7847 110.948 73.9951 109.159 73.9951 106.951C73.9951 106.751 74.0099 106.554 74.0383 106.362L73.1064 105.898C73.0335 106.237 72.9951 106.59 72.9951 106.951C72.9951 109.711 75.2324 111.948 77.9922 111.948C79.5047 111.948 80.8601 111.276 81.7765 110.215L80.845 109.751ZM74.3148 105.382C74.9247 103.955 76.3416 102.954 77.9922 102.954C80.1998 102.954 81.9893 104.744 81.9893 106.951C81.9893 107.675 81.7968 108.354 81.4601 108.94L82.3567 109.387C82.7597 108.666 82.9893 107.835 82.9893 106.951C82.9893 104.191 80.7521 101.954 77.9922 101.954C75.9495 101.954 74.1931 103.18 73.4182 104.936L74.3148 105.382Z" fill="black"/>
<path d="M111.696 100.236L113.816 114.271H128.108L130.388 99.7866" stroke="black"/>
<path d="M117.259 101.65C117.292 102.725 118.062 104.874 120.878 104.874C123.694 104.874 124.661 102.681 124.793 101.584C125.001 102.692 126.405 104.887 129.432 104.808M112.377 105.094C113.015 105.151 114.469 104.9 115.179 103.436" stroke="black"/>
<path d="M112.192 97.7466L129.439 115.347" stroke="black"/>
<path d="M159.665 101.059H166.954C168.445 101.059 171.597 101.941 172.283 105.469M172.283 105.469C172.969 108.997 172.977 112.043 172.896 113.125H155.01C155.132 110.614 156.688 105.591 161.931 105.591C167.175 105.591 171.017 105.51 172.283 105.469Z" stroke="black"/>
<circle cx="164.749" cy="109.266" r="0.735026" fill="black"/>
<path d="M255 101L249.5 96L244 101" stroke="#14142B"/>
<line y1="-0.5" x2="13" y2="-0.5" transform="matrix(0 1 1 0 250 96)" stroke="#14142B"/>
<path d="M241 107V117H258V107" stroke="#14142B"/>
<path d="M294.087 98.6455L301.362 98.6455L301.362 105.936" stroke="#14142B"/>
<line y1="-0.5" x2="10.1647" y2="-0.5" transform="matrix(-0.70631 0.707903 -0.70631 -0.707903 300.822 98.4326)" stroke="#14142B"/>
<path d="M291.912 115.355L284.637 115.355L284.637 108.064" stroke="#14142B"/>
<line y1="-0.5" x2="10.1647" y2="-0.5" transform="matrix(0.70631 -0.707903 0.70631 0.707903 285.228 115.427)" stroke="#14142B"/>
<path d="M326.7 99.7998C326.041 99.7998 325.5 100.341 325.5 101V105.2H325.8C326.798 105.2 327.6 106.002 327.6 107C327.6 107.997 326.798 108.8 325.8 108.8H325.5V113C325.5 113.659 326.041 114.2 326.7 114.2H345.3C345.959 114.2 346.5 113.659 346.5 113V108.8H346.2C345.202 108.8 344.4 107.997 344.4 107C344.4 106.002 345.202 105.2 346.2 105.2H346.5V101C346.5 100.341 345.959 99.7998 345.3 99.7998H326.7ZM326.7 100.4H331.2C331.2 100.479 331.232 100.556 331.288 100.612C331.344 100.668 331.42 100.7 331.5 100.7C331.58 100.7 331.656 100.668 331.712 100.612C331.768 100.556 331.8 100.479 331.8 100.4H345.3C345.635 100.4 345.9 100.665 345.9 101V104.661C344.725 104.815 343.8 105.784 343.8 107C343.8 108.215 344.725 109.184 345.9 109.339V113C345.9 113.335 345.635 113.6 345.3 113.6H331.8C331.8 113.52 331.768 113.444 331.712 113.388C331.656 113.331 331.58 113.3 331.5 113.3C331.42 113.3 331.344 113.331 331.288 113.388C331.232 113.444 331.2 113.52 331.2 113.6H326.7C326.365 113.6 326.1 113.335 326.1 113V109.339C327.275 109.184 328.2 108.215 328.2 107C328.2 105.784 327.275 104.815 326.1 104.661V101C326.1 100.665 326.365 100.4 326.7 100.4ZM331.5 101.3C331.42 101.3 331.344 101.331 331.288 101.388C331.232 101.444 331.2 101.52 331.2 101.6C331.2 101.679 331.232 101.756 331.288 101.812C331.344 101.868 331.42 101.9 331.5 101.9C331.58 101.9 331.656 101.868 331.712 101.812C331.768 101.756 331.8 101.679 331.8 101.6C331.8 101.52 331.768 101.444 331.712 101.388C331.656 101.331 331.58 101.3 331.5 101.3ZM331.5 102.5C331.42 102.5 331.344 102.531 331.288 102.588C331.232 102.644 331.2 102.72 331.2 102.8C331.2 102.879 331.232 102.956 331.288 103.012C331.344 103.068 331.42 103.1 331.5 103.1C331.58 103.1 331.656 103.068 331.712 103.012C331.768 102.956 331.8 102.879 331.8 102.8C331.8 102.72 331.768 102.644 331.712 102.588C331.656 102.531 331.58 102.5 331.5 102.5ZM335.729 103.293C334.836 103.293 334.2 104.008 334.2 105.016C334.2 106.03 334.836 106.744 335.729 106.744C336.623 106.744 337.254 106.029 337.254 105.016C337.254 104.003 336.623 103.293 335.729 103.293ZM339.985 103.417L337.472 106.848L334.736 110.582H335.65L338.108 107.221L340.888 103.417H339.985ZM331.5 103.7C331.42 103.7 331.344 103.731 331.288 103.788C331.232 103.844 331.2 103.92 331.2 104C331.2 104.079 331.232 104.156 331.288 104.212C331.344 104.268 331.42 104.3 331.5 104.3C331.58 104.3 331.656 104.268 331.712 104.212C331.768 104.156 331.8 104.079 331.8 104C331.8 103.92 331.768 103.844 331.712 103.788C331.656 103.731 331.58 103.7 331.5 103.7ZM335.729 103.929C336.176 103.929 336.459 104.346 336.459 105.016C336.459 105.672 336.166 106.109 335.729 106.109C335.287 106.109 334.995 105.677 334.995 105.016C334.995 104.356 335.282 103.929 335.729 103.929ZM331.5 104.9C331.42 104.9 331.344 104.931 331.288 104.988C331.232 105.044 331.2 105.12 331.2 105.2C331.2 105.279 331.232 105.356 331.288 105.412C331.344 105.468 331.42 105.5 331.5 105.5C331.58 105.5 331.656 105.468 331.712 105.412C331.768 105.356 331.8 105.279 331.8 105.2C331.8 105.12 331.768 105.044 331.712 104.988C331.656 104.931 331.58 104.9 331.5 104.9ZM331.5 106.1C331.42 106.1 331.344 106.131 331.288 106.188C331.232 106.244 331.2 106.32 331.2 106.4C331.2 106.479 331.232 106.556 331.288 106.612C331.344 106.668 331.42 106.7 331.5 106.7C331.58 106.7 331.656 106.668 331.712 106.612C331.768 106.556 331.8 106.479 331.8 106.4C331.8 106.32 331.768 106.244 331.712 106.188C331.656 106.131 331.58 106.1 331.5 106.1ZM339.876 107.255C338.982 107.255 338.346 107.971 338.346 108.979C338.346 109.992 338.982 110.706 339.876 110.706C340.77 110.706 341.4 109.991 341.4 108.979C341.4 107.965 340.77 107.255 339.876 107.255ZM331.5 107.3C331.42 107.3 331.344 107.331 331.288 107.388C331.232 107.444 331.2 107.52 331.2 107.6C331.2 107.679 331.232 107.756 331.288 107.812C331.344 107.868 331.42 107.9 331.5 107.9C331.58 107.9 331.656 107.868 331.712 107.812C331.768 107.756 331.8 107.679 331.8 107.6C331.8 107.52 331.768 107.444 331.712 107.388C331.656 107.331 331.58 107.3 331.5 107.3ZM339.876 107.891C340.323 107.891 340.605 108.308 340.605 108.979C340.605 109.634 340.313 110.071 339.876 110.071C339.434 110.071 339.141 109.639 339.141 108.979C339.141 108.318 339.429 107.891 339.876 107.891ZM331.5 108.5C331.42 108.5 331.344 108.531 331.288 108.588C331.232 108.644 331.2 108.72 331.2 108.8C331.2 108.879 331.232 108.956 331.288 109.012C331.344 109.068 331.42 109.1 331.5 109.1C331.58 109.1 331.656 109.068 331.712 109.012C331.768 108.956 331.8 108.879 331.8 108.8C331.8 108.72 331.768 108.644 331.712 108.588C331.656 108.531 331.58 108.5 331.5 108.5ZM331.5 109.7C331.42 109.7 331.344 109.731 331.288 109.788C331.232 109.844 331.2 109.92 331.2 110C331.2 110.079 331.232 110.156 331.288 110.212C331.344 110.268 331.42 110.3 331.5 110.3C331.58 110.3 331.656 110.268 331.712 110.212C331.768 110.156 331.8 110.079 331.8 110C331.8 109.92 331.768 109.844 331.712 109.788C331.656 109.731 331.58 109.7 331.5 109.7ZM331.5 110.9C331.42 110.9 331.344 110.931 331.288 110.988C331.232 111.044 331.2 111.12 331.2 111.2C331.2 111.279 331.232 111.356 331.288 111.412C331.344 111.468 331.42 111.5 331.5 111.5C331.58 111.5 331.656 111.468 331.712 111.412C331.768 111.356 331.8 111.279 331.8 111.2C331.8 111.12 331.768 111.044 331.712 110.988C331.656 110.931 331.58 110.9 331.5 110.9ZM331.5 112.1C331.42 112.1 331.344 112.131 331.288 112.188C331.232 112.244 331.2 112.32 331.2 112.4C331.2 112.479 331.232 112.556 331.288 112.612C331.344 112.668 331.42 112.7 331.5 112.7C331.58 112.7 331.656 112.668 331.712 112.612C331.768 112.556 331.8 112.479 331.8 112.4C331.8 112.32 331.768 112.244 331.712 112.188C331.656 112.131 331.58 112.1 331.5 112.1Z" fill="black"/>
<path d="M379.946 41.4802C379.902 41.4814 379.858 41.4887 379.817 41.5017L372.137 43.9017C372.039 43.9323 371.954 43.9933 371.893 44.0758C371.833 44.1582 371.8 44.2579 371.8 44.3602V62.1202C371.8 62.2273 371.836 62.3314 371.902 62.4158C371.968 62.5002 372.06 62.5602 372.164 62.5861L379.844 64.5061C379.915 64.5238 379.988 64.5251 380.06 64.5099C380.131 64.4947 380.198 64.4635 380.256 64.4186C380.313 64.3737 380.359 64.3163 380.391 64.2507C380.423 64.1851 380.44 64.1131 380.44 64.0402V41.9602C380.44 41.896 380.427 41.8324 380.402 41.7732C380.377 41.714 380.341 41.6605 380.294 41.6157C380.248 41.571 380.194 41.5359 380.134 41.5126C380.074 41.4893 380.01 41.4783 379.946 41.4802ZM379.48 42.6136V63.4252L372.76 61.7452V44.7127L379.48 42.6136ZM381.4 43.4002V44.3602H385.24V53.9602H386.2V43.8802C386.2 43.7529 386.149 43.6308 386.059 43.5408C385.969 43.4508 385.847 43.4002 385.72 43.4002H381.4ZM378.52 52.5202C378.393 52.5202 378.271 52.596 378.181 52.7311C378.091 52.8661 378.04 53.0492 378.04 53.2402C378.04 53.4311 378.091 53.6143 378.181 53.7493C378.271 53.8843 378.393 53.9602 378.52 53.9602C378.647 53.9602 378.769 53.8843 378.859 53.7493C378.949 53.6143 379 53.4311 379 53.2402C379 53.0492 378.949 52.8661 378.859 52.7311C378.769 52.596 378.647 52.5202 378.52 52.5202ZM381.88 54.9202C381.753 54.9202 381.631 54.9708 381.541 55.0608C381.451 55.1508 381.4 55.2729 381.4 55.4002V62.1202C381.4 62.2475 381.451 62.3696 381.541 62.4596C381.631 62.5496 381.753 62.6002 381.88 62.6002H389.56C389.687 62.6002 389.809 62.5496 389.899 62.4596C389.989 62.3696 390.04 62.2475 390.04 62.1202V55.4002C390.04 55.2729 389.989 55.1508 389.899 55.0608C389.809 54.9708 389.687 54.9202 389.56 54.9202H381.88ZM382.36 55.8802H389.08V61.6402H382.36V55.8802ZM384.76 56.8402C384.696 56.8393 384.633 56.851 384.574 56.8748C384.515 56.8985 384.461 56.9337 384.416 56.9783C384.371 57.023 384.335 57.0762 384.31 57.1349C384.286 57.1936 384.273 57.2566 384.273 57.3202C384.273 57.3838 384.286 57.4468 384.31 57.5055C384.335 57.5641 384.371 57.6174 384.416 57.662C384.461 57.7067 384.515 57.7419 384.574 57.7656C384.633 57.7893 384.696 57.8011 384.76 57.8002H386.68C386.744 57.8011 386.807 57.7893 386.866 57.7656C386.925 57.7419 386.979 57.7067 387.024 57.662C387.069 57.6174 387.105 57.5641 387.13 57.5055C387.154 57.4468 387.167 57.3838 387.167 57.3202C387.167 57.2566 387.154 57.1936 387.13 57.1349C387.105 57.0762 387.069 57.023 387.024 56.9783C386.979 56.9337 386.925 56.8985 386.866 56.8748C386.807 56.851 386.744 56.8393 386.68 56.8402H384.76Z" fill="black"/>
<path d="M376 100L382.963 106.963L376 113.926" stroke="#14142B"/>
<path d="M415.518 110.445L422.482 103.482L429.445 110.445" stroke="#14142B"/>
<path d="M472.445 103.481L465.482 110.445L458.518 103.481" stroke="#14142B"/>
<path d="M511.963 113.926L505 106.963L511.963 99.9999" stroke="#14142B"/>
<path d="M511.972 42.8284L518.336 43.5355C518.336 43.5355 519.043 49.8994 511.972 56.9705C504.901 64.0416 498.536 63.3358 498.536 63.3358L497.828 56.9719L502.78 54.1434L505.254 56.6176C505.254 56.6176 507.022 56.2641 509.143 54.1427C511.264 52.0214 511.618 50.2537 511.618 50.2537L509.144 47.7795L511.972 42.8284Z" stroke="#14142B"/>
<path d="M561 52C561 57.5228 551 65 551 65C551 65 541 57.5228 541 52C541 46.4772 545.477 42 551 42C556.523 42 561 46.4772 561 52Z" stroke="#14142B"/>
<circle cx="551" cy="52" r="3" stroke="#14142B"/>
<path fill-rule="evenodd" clip-rule="evenodd" d="M542 102.5V103.5H560V102.5H542ZM549 111.5H553V110.5H549V111.5ZM557 107.5H545V106.5H557V107.5Z" fill="black"/>
<rect x="27.5002" y="153.5" width="6" height="6" stroke="#14142B"/>
<rect x="27.5002" y="162.5" width="6" height="6" stroke="#14142B"/>
<rect x="36.5002" y="153.5" width="6" height="6" stroke="#14142B"/>
<rect x="36.5002" y="162.5" width="6" height="6" stroke="#14142B"/>
<path d="M69.0449 167.026H86.9553" stroke="#14142B"/>
<path d="M86.8018 166.533L86.8018 170.392" stroke="#14142B"/>
<path d="M69.3052 166.533L69.3052 170.392" stroke="#14142B"/>
<rect x="69.25" y="152.455" width="17.5" height="10.7458" stroke="#14142A"/>
<path d="M121.205 166H128.977" stroke="#14142B"/>
<path d="M121.228 156H129" stroke="#14142B"/>
<rect x="111.513" y="152.455" width="7" height="7" stroke="#14142A"/>
<rect x="111.513" y="162.514" width="7" height="7" stroke="#14142A"/>
</svg>
